# xmcd
#
# Track frame offsets: 
#        150
#        18153
#        36120
#        54117
#
# Disc length: 958 seconds
#
# Revision: 1
# Processed by: cddbd v1.5.2PL0 Copyright (c) Steve Scherf et al.
# Submitted via: ExactAudioCopy v1.0b3
#
DISCID=2103bc04
DTITLE=Creme De La Creme - Letzte Nacht
DYEAR=2013
DGENRE=Rap
TTITLE0=Letzte Nacht (Radio Version)
TTITLE1=Letzte Nacht (Porno Funk Short Version)
TTITLE2=Letzte Nacht (Radio Instrumental)
TTITLE3=Letzte Nacht (Porno Funk Instrumental)
EXTD=YEAR: 2005/11/30
EXTT0=
EXTT1=
EXTT2=
EXTT3=
PLAYORDER=
